<svg width="1920" height="600" viewBox="0 0 1920 600" fill="none" xmlns="http://www.w3.org/2000/svg">
<mask id="mask0_92_255" style="mask-type:alpha" maskUnits="userSpaceOnUse" x="0" y="0" width="1920" height="600">
<rect width="1920" height="600" fill="#1F1D35"/>
</mask>
<g mask="url(#mask0_92_255)">
<rect width="1920" height="600" fill="#1F1D35"/>
<g opacity="0.0849377">
<path d="M317.301 1694.35C462.233 1782.65 625.701 1840.45 793.973 1862.9C898.077 1876.78 1017.47 1871.91 1089.29 1795.37C1143.13 1738.01 1156.52 1653.45 1153.63 1574.88C1150.73 1496.31 1134.2 1418.19 1138.82 1339.71C1143.44 1261.22 1174.46 1178.11 1242.34 1138.3C1306.57 1100.61 1386.59 1110 1460.94 1114.62C1535.29 1119.22 1619.7 1113.68 1668.69 1057.63C1738.07 978.261 1695.2 848.933 1743.71 755.368C1789.72 666.623 1907.09 630.585 1947.45 539.145C1981.2 462.713 1949.84 374.738 1918.16 297.439C1885.13 216.853 1851.69 136.434 1817.85 56.1874" stroke="white" stroke-opacity="0.4" stroke-width="2.3"/>
<path d="M221.4 1602.13C362.954 1688.55 522.603 1745.13 686.952 1767.11C788.629 1780.7 905.239 1775.93 975.387 1701.01C1027.96 1644.87 1041.05 1562.1 1038.21 1485.19C1035.39 1408.29 1019.24 1331.82 1023.76 1254.99C1028.27 1178.16 1058.57 1096.82 1124.86 1057.84C1187.6 1020.96 1265.75 1030.14 1338.37 1034.66C1410.99 1039.18 1493.42 1033.75 1541.27 978.888C1609.03 901.193 1567.16 774.602 1614.54 683.017C1659.47 596.154 1774.11 560.878 1813.54 471.369C1846.49 396.562 1815.86 310.446 1784.92 234.776C1752.66 155.902 1720 77.1837 1686.95 -1.36239" stroke="white" stroke-opacity="0.4" stroke-width="2.3"/>
<path d="M125.499 1514.71C264.098 1599.27 420.409 1654.62 581.326 1676.11C680.879 1689.42 795.053 1684.75 863.733 1611.45C915.208 1556.52 928.016 1475.54 925.247 1400.3C922.478 1325.05 906.671 1250.24 911.092 1175.07C915.513 1099.91 945.176 1020.32 1010.08 982.187C1071.51 946.097 1148.02 955.091 1219.13 959.507C1290.22 963.929 1370.94 958.62 1417.79 904.939C1484.14 828.923 1443.14 705.076 1489.53 615.466C1533.53 530.479 1645.76 495.966 1684.37 408.4C1716.63 335.205 1686.64 250.955 1656.35 176.92C1624.76 99.7524 1592.79 22.7346 1560.42 -54.1162" stroke="white" stroke-opacity="0.4" stroke-width="2.3"/>
<path d="M29.5983 1422.94C164.813 1505.41 317.317 1559.38 474.305 1580.34C571.43 1593.32 682.82 1588.77 749.824 1517.29C800.045 1463.72 812.544 1384.75 809.842 1311.39C807.14 1238.01 791.714 1165.05 796.032 1091.76C800.344 1018.46 829.281 940.854 892.605 903.67C952.537 868.474 1027.18 877.24 1096.55 881.551C1165.92 885.862 1244.66 880.683 1290.37 828.347C1355.09 754.22 1315.1 633.442 1360.36 546.065C1403.28 463.189 1512.78 429.546 1550.44 344.147C1581.92 272.773 1552.67 190.61 1523.11 118.426C1492.29 43.172 1461.1 -31.9265 1429.52 -106.87" stroke="white" stroke-opacity="0.4" stroke-width="2.3"/>
<path d="M-71.0975 1335.52C61.1622 1416.11 210.323 1468.86 363.885 1489.35C458.88 1502.03 567.833 1497.58 633.376 1427.72C682.495 1375.37 694.718 1298.2 692.074 1226.49C689.436 1154.78 674.349 1083.47 678.566 1011.84C682.789 940.207 711.095 864.352 773.032 828.013C831.65 793.618 904.663 802.181 972.516 806.399C1040.37 810.611 1117.38 805.547 1162.1 754.396C1225.4 681.947 1186.29 563.912 1230.55 478.51C1272.54 397.516 1379.64 364.63 1416.48 281.167C1447.27 211.412 1418.66 131.114 1389.74 60.5587C1359.6 -12.9889 1329.09 -86.3869 1298.21 -159.624" stroke="white" stroke-opacity="0.4" stroke-width="2.3"/>
<path d="M-166.998 1243.76C-38.1224 1322.25 107.236 1373.62 256.864 1393.59C349.438 1405.93 455.6 1401.6 519.466 1333.57C567.332 1282.57 579.241 1207.42 576.669 1137.58C574.098 1067.73 559.393 998.292 563.506 928.525C567.62 858.764 595.2 784.884 655.556 749.495C712.674 715.996 783.828 724.342 849.943 728.443C916.058 732.545 991.108 727.622 1034.68 677.798C1096.37 607.244 1058.25 492.289 1101.38 409.115C1142.29 330.232 1246.66 298.204 1282.56 216.914C1312.56 148.979 1284.68 70.7803 1256.51 2.06438C1227.13 -69.5637 1197.4 -141.043 1167.3 -212.378" stroke="white" stroke-opacity="0.4" stroke-width="2.3"/>
<path d="M-262.899 1151.54C-137.401 1228.16 4.13831 1278.32 149.843 1297.8C239.989 1309.85 343.368 1305.62 405.562 1239.2C452.169 1189.43 463.769 1116.06 461.264 1047.88C458.754 979.71 444.442 911.916 448.446 843.812C452.451 775.713 479.311 703.594 538.081 669.045C593.703 636.347 662.982 644.49 727.365 648.492C791.749 652.5 864.831 647.693 907.256 599.054C967.33 530.179 930.209 417.961 972.214 336.768C1012.05 259.762 1113.68 228.496 1148.63 149.149C1177.85 82.827 1150.7 6.49329 1123.27 -60.5876C1094.67 -130.509 1065.71 -200.287 1036.41 -269.927" stroke="white" stroke-opacity="0.4" stroke-width="2.3"/>
<path d="M-358.8 1064.12C-236.263 1138.87 -98.0549 1187.8 44.2179 1206.81C132.235 1218.56 233.182 1214.44 293.903 1149.65C339.414 1101.08 350.745 1029.5 348.292 962.991C345.851 896.48 331.867 830.343 335.782 763.894C339.691 697.452 365.915 627.1 423.303 593.389C477.611 561.487 545.259 569.432 608.128 573.342C670.991 577.245 742.352 572.553 783.775 525.105C842.435 457.908 806.188 348.428 847.202 269.221C886.098 194.09 985.336 163.586 1019.46 86.1758C1047.99 21.4721 1021.49 -53.0079 994.697 -118.454C966.769 -186.67 938.495 -254.742 909.881 -322.681" stroke="white" stroke-opacity="0.4" stroke-width="2.3"/>
<path d="M-454.701 972.363C-335.542 1045.01 -201.147 1092.57 -62.8029 1111.03C22.7863 1122.46 120.949 1118.45 180 1055.48C224.257 1008.28 235.267 938.718 232.887 874.077C230.507 809.43 216.916 745.157 220.716 680.584C224.522 616.007 250.02 547.63 305.828 514.87C358.635 483.863 424.423 491.586 485.55 495.384C546.681 499.182 616.075 494.62 656.354 448.505C713.398 383.203 678.15 276.797 718.032 199.819C755.862 126.805 852.352 97.1538 885.542 21.9221C913.283 -40.9606 887.509 -113.342 861.453 -176.949C834.299 -243.245 806.806 -309.409 778.986 -375.435" stroke="white" stroke-opacity="0.4" stroke-width="2.3"/>
<path d="M-555.397 884.942C-439.193 955.723 -308.136 1002.05 -173.225 1020.04C-89.7596 1031.18 5.96629 1027.27 63.5494 965.918C106.705 919.936 117.445 852.164 115.129 789.179C112.807 726.201 99.5489 663.573 103.254 600.669C106.964 537.753 131.832 471.132 186.252 439.217C237.751 409.011 301.902 416.537 361.513 420.23C421.13 423.936 488.796 419.494 528.074 374.558C583.704 310.935 549.33 207.273 588.221 132.269C625.114 61.1313 719.21 32.2483 751.579 -41.0525C778.631 -102.317 753.492 -172.839 728.088 -234.799C701.607 -299.4 674.798 -363.858 647.666 -428.189" stroke="white" stroke-opacity="0.4" stroke-width="2.3"/>
<path d="M-651.298 793.184C-538.478 861.86 -411.229 906.812 -280.245 924.272C-199.208 935.078 -106.266 931.288 -50.3601 871.759C-8.45766 827.14 1.96762 761.375 -0.281986 700.266C-2.53735 639.163 -15.4078 578.393 -11.8062 517.347C-8.2045 456.307 15.9428 391.662 68.7768 360.697C118.78 331.386 181.061 338.689 238.941 342.277C296.821 345.866 362.52 341.554 400.659 297.957C454.667 236.223 421.297 135.64 459.057 62.8641C494.866 -6.1625 586.231 -34.1876 617.657 -105.304C643.921 -164.754 619.515 -233.183 594.85 -293.304C569.138 -355.98 543.109 -418.525 516.764 -480.943" stroke="white" stroke-opacity="0.4" stroke-width="2.3"/>
<path d="M-747.198 700.963C-637.757 767.768 -514.327 811.502 -387.26 828.491C-308.656 838.995 -218.499 835.304 -164.264 777.398C-123.62 733.992 -113.504 670.021 -115.687 610.575C-117.876 551.129 -130.359 492.016 -126.866 432.633C-123.373 373.255 -99.9524 310.377 -48.6984 280.245C-0.196191 251.73 60.2205 258.836 116.369 262.325C172.512 265.821 236.243 261.624 273.239 219.212C325.624 159.162 293.259 61.3118 329.887 -9.48334C364.63 -76.6278 453.254 -103.89 483.735 -173.076C509.212 -230.906 485.539 -297.47 461.612 -355.956C436.669 -416.926 411.421 -477.77 385.869 -538.492" stroke="white" stroke-opacity="0.4" stroke-width="2.3"/>
<path d="M-843.099 613.538C-736.613 678.473 -616.52 720.983 -492.891 737.494C-416.405 747.713 -328.69 744.127 -275.916 687.834C-236.369 645.646 -226.528 583.457 -228.653 525.679C-230.784 467.895 -242.928 410.439 -239.536 352.712C-236.133 294.992 -213.348 233.874 -163.482 204.588C-116.288 176.873 -57.5021 183.776 -2.87401 187.167C51.754 190.563 113.764 186.487 149.759 145.267C200.73 86.8837 169.239 -8.22369 204.876 -77.0326C238.677 -142.301 324.906 -168.807 354.566 -236.055C379.355 -292.268 356.317 -356.966 333.042 -413.818C308.777 -473.087 284.207 -532.23 259.343 -591.246" stroke="white" stroke-opacity="0.4" stroke-width="2.3"/>
<path d="M-939 521.781C-835.897 584.611 -719.612 625.75 -599.912 641.725C-525.853 651.611 -440.917 648.141 -389.826 593.675C-351.532 552.845 -342.006 492.681 -344.064 436.761C-346.122 380.853 -357.884 325.255 -354.596 269.399C-351.302 213.548 -329.243 154.406 -280.957 126.07C-235.258 99.2507 -178.337 105.931 -125.446 109.217C-72.5553 112.502 -12.5126 108.556 22.3378 68.6687C71.6931 12.1805 41.2003 -79.8469 75.7059 -146.433C108.435 -209.591 191.928 -235.233 220.644 -300.308C244.646 -354.694 222.34 -417.306 199.804 -472.318C176.308 -529.662 152.518 -586.891 128.442 -644" stroke="white" stroke-opacity="0.4" stroke-width="2.3"/>
</g>
</g>
</svg>
